<?xml version="1.0" standalone="no"?>
<!DOCTYPE svg PUBLIC "-//W3C//DTD SVG 20010904//EN"
 "http://www.w3.org/TR/2001/REC-SVG-20010904/DTD/svg10.dtd">
<svg version="1.0" xmlns="http://www.w3.org/2000/svg"
 width="1051.000000pt" height="696.000000pt" viewBox="0 0 1051.000000 696.000000"
 preserveAspectRatio="xMidYMid meet">

<g transform="translate(0.000000,696.000000) scale(0.100000,-0.100000)"
fill="#000000" stroke="none">
<path d="M4910 6893 c-564 -30 -1037 -98 -1512 -219 -1305 -331 -2347 -989
-2904 -1834 -228 -346 -366 -713 -415 -1105 -14 -116 -14 -414 1 -530 60 -478
255 -923 586 -1340 48 -60 176 -198 283 -306 210 -210 370 -338 656 -524 1303
-851 3171 -1182 4960 -880 1747 296 3145 1184 3667 2330 236 517 281 1085 128
1629 -140 499 -473 998 -940 1409 -998 878 -2545 1386 -4190 1375 -146 -1
-290 -3 -320 -5z m815 -153 c1303 -83 2465 -471 3333 -1112 50 -37 92 -70 92
-73 0 -2 -35 -2 -77 1 -161 12 -313 -44 -423 -155 -157 -159 -181 -293 -145
-811 19 -272 37 -416 86 -710 45 -267 59 -461 40 -580 -13 -80 -52 -179 -81
-205 -17 -16 -20 -13 -53 57 -127 270 -169 619 -136 1127 23 356 -33 699 -149
915 -42 77 -133 169 -215 216 -98 57 -199 83 -322 83 -118 0 -191 -14 -300
-60 -186 -78 -347 -247 -411 -432 -76 -220 -48 -427 100 -721 34 -69 184 -327
333 -575 385 -641 431 -733 543 -1086 174 -546 212 -646 306 -796 128 -203
226 -275 374 -275 89 1 182 32 274 92 228 149 393 417 451 733 18 99 22 265
15 642 -6 345 12 423 177 770 234 489 299 741 264 1019 -7 54 -11 100 -9 102
11 10 206 -304 268 -431 108 -222 166 -394 211 -630 30 -156 37 -473 15 -645
-96 -728 -545 -1396 -1304 -1939 -1134 -811 -2833 -1200 -4498 -1031 -949 97
-1801 355 -2538 768 l-118 67 133 7 c305 16 533 120 742 338 213 222 344 498
409 860 8 46 13 151 13 270 -1 162 -5 214 -23 308 -55 276 -143 455 -292 596
-142 134 -308 179 -523 141 -183 -32 -320 -98 -418 -203 -73 -77 -111 -143
-145 -247 -22 -66 -28 -105 -32 -221 -7 -225 35 -365 139 -458 65 -59 140 -86
254 -93 50 -3 98 -10 107 -15 46 -23 24 -106 -42 -158 -125 -99 -294 -114
-438 -41 -125 64 -252 200 -321 344 -61 125 -75 192 -74 337 0 148 22 242 82
365 79 160 186 263 366 350 129 64 207 86 410 120 268 46 358 79 451 167 107
101 154 215 154 372 0 292 -188 539 -465 611 -90 24 -231 33 -351 24 -346 -27
-706 -203 -990 -484 -215 -212 -350 -436 -439 -730 -56 -185 -77 -332 -82
-576 -6 -253 9 -407 62 -614 18 -71 31 -131 30 -133 -6 -7 -105 187 -148 288
-332 783 -213 1612 336 2335 347 455 841 843 1477 1159 746 370 1616 594 2555
655 180 12 778 12 960 1z"/>
<path d="M3790 5849 c-267 -34 -489 -145 -663 -330 -190 -202 -280 -435 -279
-724 0 -295 138 -990 297 -1500 133 -427 159 -561 153 -782 l-4 -148 -64 -190
-64 -190 -1 -160 c0 -150 2 -165 28 -240 52 -146 124 -228 244 -277 50 -19 76
-23 183 -23 107 0 133 4 182 23 195 78 326 280 402 622 66 298 55 550 -36 809
-34 96 -123 289 -186 399 -35 62 -38 71 -19 61 45 -24 148 -112 217 -186 275
-295 350 -575 289 -1090 -35 -302 -16 -491 63 -615 89 -140 264 -238 427 -238
68 0 169 33 214 70 121 101 165 261 174 635 5 242 -8 412 -52 669 -132 767
-332 1092 -837 1359 l-47 25 54 35 c208 138 444 470 504 709 103 406 -88 876
-455 1117 -203 133 -472 192 -724 160z m296 -874 c106 -31 160 -122 152 -252
-11 -175 -133 -330 -281 -357 -100 -18 -201 51 -233 160 -25 86 -16 213 20
282 77 150 199 210 342 167z"/>
<path d="M5885 5640 c-299 -47 -527 -229 -604 -483 -11 -37 -28 -127 -37 -200
-22 -187 -59 -352 -111 -502 -101 -292 -105 -307 -110 -401 -7 -114 17 -204
74 -278 129 -167 348 -193 650 -77 212 82 515 321 667 525 149 200 230 413
243 636 9 170 -30 345 -108 477 -80 136 -228 249 -374 288 -76 20 -212 27
-290 15z m46 -1059 c33 -33 35 -50 15 -90 -26 -49 -119 -69 -158 -34 -28 25
-25 97 7 128 36 37 97 35 136 -4z"/>
<path d="M6395 3720 c-369 -57 -678 -328 -792 -696 -27 -86 -27 -96 -27 -319
0 -261 12 -340 85 -559 86 -260 209 -457 408 -657 196 -196 366 -303 578 -364
147 -43 333 -49 441 -14 202 64 412 275 476 479 37 114 51 300 36 464 -11 132
-96 663 -125 791 -47 202 -129 404 -219 539 -109 164 -254 275 -421 321 -71
20 -346 29 -440 15z m191 -1252 c41 -32 52 -46 81 -108 37 -77 39 -177 4 -214
-32 -34 -94 -36 -142 -3 -65 42 -116 196 -95 281 16 66 95 88 152 44z"/>
</g>
</svg>
